<svg xmlns="http://www.w3.org/2000/svg" viewBox="0 0 512 512" width="512" height="512">
  <defs>
    <linearGradient id="bg" x1="0%" y1="0%" x2="100%" y2="100%">
      <stop offset="0%" stop-color="#064e3b" />
      <stop offset="50%" stop-color="#065f46" />
      <stop offset="100%" stop-color="#022c22" />
    </linearGradient>
    <linearGradient id="shield" x1="0%" y1="0%" x2="100%" y2="100%">
      <stop offset="0%" stop-color="#10b981" />
      <stop offset="100%" stop-color="#059669" />
    </linearGradient>
    <linearGradient id="gold" x1="0%" y1="0%" x2="100%" y2="100%">
      <stop offset="0%" stop-color="#fbbf24" />
      <stop offset="100%" stop-color="#d97706" />
    </linearGradient>
  </defs>
  <rect width="512" height="512" rx="128" fill="url(#bg)" />
  <!-- Protective Shield -->
  <path d="M256 80 L380 130 C380 260 330 360 256 420 C182 360 132 260 132 130 Z" fill="none" stroke="url(#shield)" stroke-width="20" stroke-linejoin="round" />
  <!-- Livestock Horns / Cattle Head Silhouette -->
  <path d="M190 200 C170 170 160 150 140 140 C170 150 200 175 220 200" fill="none" stroke="url(#gold)" stroke-width="12" stroke-linecap="round" />
  <path d="M322 200 C342 170 352 150 372 140 C342 150 312 175 292 200" fill="none" stroke="url(#gold)" stroke-width="12" stroke-linecap="round" />
  <!-- Pulse Line (Livestock Health Monitoring) -->
  <path d="M170 270 L210 270 L230 220 L256 320 L280 240 L300 270 L342 270" fill="none" stroke="#ffffff" stroke-width="14" stroke-linecap="round" stroke-linejoin="round" />
  <!-- Veterinary Cross in Amber -->
  <rect x="246" y="150" width="20" height="50" rx="6" fill="url(#gold)" />
  <rect x="231" y="165" width="50" height="20" rx="6" fill="url(#gold)" />
</svg>
